<svg width="190" height="55" viewBox="0 0 190 55" xmlns="http://www.w3.org/2000/svg"><path d="m20.5 18.9v10.7h-6v-1c-.9.9-2 1.5-3.8 1.5-3.3 0-5.8-1.8-5.8-5.3s2.6-5.3 5.9-5.3c1.7 0 2.8.4 3.7 1v-1.6c0-.7-.3-1.4-1.4-1.4s-1.4.6-1.4 1.2h-6c0-4.4 3.7-6.6 7.4-6.6 3.8 0 7.4 2.2 7.4 6.8zm-5.9 5.9c0-.9-.7-1.4-1.7-1.4-1.1 0-1.7.6-1.7 1.4s.6 1.4 1.7 1.4c.9 0 1.7-.6 1.7-1.4zm19.2-12.5v6.8c-2.1-.3-4.4.5-4.4 3.5v7h-6.3v-17h6.3v2.7c.6-2 2.3-3 4.4-3zm12.1 6.3h-2.3v11h-6.3v-11h-2.3v-6h2.3v-5.4h6.3v5.4h2.3zm.6 2.5c0-5.1 4-9 9.1-9s9.1 3.9 9.1 9-4 9-9.1 9c-5 0-9.1-3.9-9.1-9zm12 0c0-1.8-1.2-3-2.9-3s-2.9 1.2-2.9 3 1.2 3 2.9 3 2.9-1.2 2.9-3zm14.8-8.5h2.6v6h-2.6v11h-6.3v-11h-2v-6h2c0-4.8 3-7.7 8.9-7.3v5.6c-1.7-.1-2.6.6-2.6 1.7zm4 3.7h13.6v5.9h-13.6zm30.9 8.2c0 4.1-3.7 5.6-7.5 5.6s-7.5-1.5-7.5-6.1h6.3c0 1 .4 1.5 1.2 1.5s1.2-.3 1.2-.9c0-2.1-8.6-.2-8.6-6.9 0-4 3.7-5.6 7.3-5.6s7.2 1.8 7.2 6h-6.1c0-1-.4-1.4-1.1-1.4-.6 0-1.1.3-1.1.9.1 2.3 8.7 0 8.7 6.9zm10.4 1c.9 0 1.8-.4 2-.8h5.7c-1.1 3.9-4.5 5.5-8.1 5.5-5.4 0-9-3.9-9-9s3.7-9 9.1-9c5 0 8.6 3.8 8.6 8.9 0 .7-.1 1.4-.3 2.2h-11.1c.6 1.6 1.9 2.2 3.1 2.2zm2.4-6.3c-.4-1.5-1.4-2-2.7-2-1.4 0-2.5.6-3 2zm7.8-14.1h6.3v24.5h-6.3zm17.7 20.4c.9 0 1.8-.4 2-.8h5.7c-1.1 3.9-4.5 5.5-8.1 5.5-5.4 0-9-3.9-9-9s3.7-9 9.1-9c5 0 8.6 3.8 8.6 8.9 0 .7-.1 1.4-.3 2.2h-11.1c.6 1.6 1.9 2.2 3.1 2.2zm2.4-6.3c-.4-1.5-1.4-2-2.7-2-1.4 0-2.5.6-3 2zm16.2 10.9c-5.2 0-9.1-3.9-9.1-9s3.9-9 9.1-9c4.6 0 8.3 3.2 8.8 7.6h-6.5c-.3-1-1.2-1.6-2.3-1.6-1.6 0-2.8 1.2-2.8 2.9s1.2 2.9 2.8 2.9c1.1 0 2.1-.6 2.3-1.6h6.5c-.5 4.6-4.2 7.8-8.8 7.8zm20.3-11.5h-2.3v11h-6.3v-11h-2.3v-6h2.3v-5.4h6.3v5.4h2.3z" fill="#ffb736"/><path d="m10.7 41-4.4 1.8 4.4 1.8v1.3l-5.8-2.5v-1.2l5.8-2.5zm1.1 3.8h1.3c0 1.2.9 1.8 2.2 1.8 1.1 0 1.9-.6 1.9-1.5s-1-1.3-2-1.8c-1.5-.5-3.1-1.1-3.1-3 0-1.7 1.5-2.7 3-2.7 1.7 0 3.2 1 3.2 2.9h-1.3c0-1.1-.8-1.7-1.8-1.7s-1.7.5-1.7 1.4c0 1 .9 1.4 2 1.8 1.5.6 3.2 1.1 3.2 3 0 1.7-1.5 2.7-3.2 2.7-2.1.2-3.7-.9-3.7-2.9zm11.4 2c.9 0 1.6-.4 1.9-1h1.3c-.4 1.3-1.6 2.1-3.2 2.1-2.2 0-3.6-1.6-3.6-3.7s1.4-3.7 3.6-3.7c2.1 0 3.4 1.7 3.4 3.7v.5h-5.8c.2 1.4 1.2 2.1 2.4 2.1zm2.2-3.1c-.2-1.4-1.1-2-2.2-2-1.3 0-2.2.8-2.4 2zm2.5-6.1h1.2v10.1h-1.2zm6.4 9.2c.9 0 1.6-.4 1.9-1h1.3c-.4 1.3-1.6 2.1-3.2 2.1-2.2 0-3.6-1.6-3.6-3.7s1.4-3.7 3.6-3.7c2.1 0 3.4 1.7 3.4 3.7v.5h-5.8c.2 1.4 1.1 2.1 2.4 2.1zm2.1-3.1c-.2-1.4-1.1-2-2.2-2-1.3 0-2.2.8-2.4 2zm5.9 4.2c-2.1 0-3.7-1.6-3.7-3.7s1.6-3.7 3.7-3.7c1.7 0 3 1 3.4 2.5h-1.3c-.3-.8-1.1-1.3-2.1-1.3-1.4 0-2.5 1.1-2.5 2.5s1.1 2.5 2.5 2.5c1 0 1.8-.5 2.1-1.3h1.3c-.4 1.5-1.7 2.5-3.4 2.5zm8-6h-1.3v5.8h-1.2v-5.8h-1.4v-1.2h1.4v-2.2h1.2v2.2h1.4v1.2zm4.3 7.2 5.6-12.6h.7l-5.6 12.6zm13.4-6.9v1.2l-5.8 2.5v-1.3l4.4-1.8-4.4-1.8v-1.3zm8.5 1.8h-1.8v3.8h-1.3v-9.8h1.3 2.3c1.7 0 3.1 1.4 3.1 3 0 1.3-.9 2.4-2 2.8l3.4 3.9h-1.6zm-1.9-1.2h2.3c1 0 1.8-.8 1.8-1.8s-.8-1.8-1.8-1.8h-2.3zm10.3 4c.9 0 1.6-.4 1.9-1h1.2c-.4 1.3-1.6 2.1-3.2 2.1-2.2 0-3.6-1.6-3.6-3.7s1.4-3.7 3.6-3.7c2.1 0 3.4 1.7 3.4 3.7v.5h-5.8c.3 1.4 1.2 2.1 2.5 2.1zm2.1-3.1c-.2-1.4-1.1-2-2.2-2-1.3 0-2.2.8-2.4 2zm7.9-.5v4.5h-1.2v-.7c-.5.6-1.2.9-2.1.9-1.3 0-2.5-.7-2.5-2.2s1.2-2.2 2.5-2.2c.9 0 1.6.3 2.1.8v-1c0-1.1-.7-1.5-1.5-1.5s-1.5.4-1.5 1.3h-1.2c0-1.4 1.2-2.4 2.7-2.4 1.6-.2 2.7.8 2.7 2.5zm-1.2 2.5c0-.8-.7-1.2-1.7-1.2-1.1 0-1.6.5-1.6 1.2s.5 1.2 1.6 1.2c1 0 1.7-.5 1.7-1.2zm6.2 2.2c-2.1 0-3.7-1.6-3.7-3.7s1.6-3.7 3.7-3.7c1.7 0 3 1 3.4 2.5h-1.3c-.3-.8-1.1-1.3-2.1-1.3-1.4 0-2.5 1.1-2.5 2.5s1.1 2.5 2.5 2.5c1 0 1.8-.5 2.1-1.3h1.3c-.3 1.5-1.7 2.5-3.4 2.5zm8-6h-1.4v5.8h-1.2v-5.8h-1.3v-1.2h1.4v-2.2h1.2v2.2h1.4v1.2zm4.3.9c0-2.8 2.1-5.1 5.1-5.1 2.2 0 4.1 1.4 4.7 3.4h-1.4c-.5-1.3-1.8-2.1-3.3-2.1-2.3 0-3.8 1.7-3.8 3.8s1.5 3.8 3.8 3.8c1.5 0 2.8-.9 3.3-2.1h1.4c-.5 2-2.4 3.4-4.7 3.4-3 0-5.1-2.3-5.1-5.1zm10.6 1.4c0-2.1 1.6-3.7 3.7-3.7 2 0 3.7 1.6 3.7 3.7s-1.7 3.7-3.7 3.7c-2.1 0-3.7-1.6-3.7-3.7zm6.2 0c0-1.4-1.1-2.5-2.5-2.5s-2.5 1.1-2.5 2.5 1.1 2.5 2.5 2.5 2.5-1.1 2.5-2.5zm11.7-1.2v4.7h-1.2v-4.7c0-1-.6-1.3-1.2-1.3s-1.5.4-1.5 1.8v4.3h-1.2v-4.8c0-1-.6-1.3-1.2-1.3s-1.5.4-1.5 1.8v4.3h-1.2v-7h1.2v.8c.5-.7 1.1-1 1.8-1s1.4.4 1.8 1.1c.5-.8 1.2-1.1 2-1.1 1.2-.1 2.2.8 2.2 2.4zm9.1 1.2c0 2.1-1.6 3.7-3.5 3.7-1.2 0-2.1-.5-2.6-1.4v4h-1.2v-9.8h1.2v1.2c.6-.8 1.5-1.4 2.6-1.4 1.9 0 3.5 1.7 3.5 3.7zm-1.2 0c0-1.4-1.1-2.5-2.5-2.5s-2.5 1.1-2.5 2.5 1.1 2.5 2.5 2.5 2.5-1 2.5-2.5zm2.2 0c0-2.1 1.6-3.7 3.7-3.7 2 0 3.7 1.6 3.7 3.7s-1.7 3.7-3.7 3.7-3.7-1.6-3.7-3.7zm6.2 0c0-1.4-1.1-2.5-2.5-2.5s-2.5 1.1-2.5 2.5 1.1 2.5 2.5 2.5 2.5-1.1 2.5-2.5zm8.3-1v4.6h-1.2v-4.5c0-1-.6-1.5-1.5-1.5s-1.8.5-1.8 2v4h-1.2v-7h1.2v.9c.5-.8 1.2-1 2.1-1 1.4-.2 2.4.8 2.4 2.5zm5 3.6c.9 0 1.6-.4 1.9-1h1.3c-.4 1.3-1.6 2.1-3.2 2.1-2.2 0-3.6-1.6-3.6-3.7s1.4-3.7 3.6-3.7c2.1 0 3.4 1.7 3.4 3.7v.5h-5.8c.2 1.4 1.1 2.1 2.4 2.1zm2.1-3.1c-.2-1.4-1.1-2-2.2-2-1.3 0-2.2.8-2.4 2zm8.2-.5v4.6h-1.2v-4.5c0-1-.6-1.5-1.5-1.5s-1.8.5-1.8 2v4h-1.1v-7h1.2v.9c.5-.8 1.2-1 2.1-1 1.3-.2 2.3.8 2.3 2.5zm5-1.3h-1.4v5.8h-1.2v-5.8h-1.4v-1.2h1.4v-2.2h1.2v2.2h1.4z" fill="#fff"/></svg>
